<svg id="Layer_1" data-name="Layer 1" xmlns="http://www.w3.org/2000/svg" viewBox="0 0 332 57"><defs><style>.cls-1{fill:#fff;}</style></defs><g id="WooFunnels-Logo"><path class="cls-1" d="M100.8,46.7a.91.91,0,0,1-.3-.7v-.4l11.2-30.8a1.92,1.92,0,0,1,1.9-1.4h7.5a1.84,1.84,0,0,1,1.9,1.4l11.2,30.8V46a1,1,0,0,1-1,1H127a1.62,1.62,0,0,1-1.6-1.1l-1.7-4.7H111.1l-1.7,4.7a1.71,1.71,0,0,1-1.6,1.1h-6.2A1,1,0,0,1,100.8,46.7Zm12.3-12.6h8.5l-4.3-12.2Z"/><path class="cls-1" d="M139.5,44.6a11.66,11.66,0,0,1-2.6-8V23.2a1.09,1.09,0,0,1,.4-.9,1.14,1.14,0,0,1,.8-.3h6.4a1.4,1.4,0,0,1,.9.3,1.27,1.27,0,0,1,.4.9V36.3c0,3,1.3,4.5,4,4.5a3.77,3.77,0,0,0,3-1.2,4.86,4.86,0,0,0,1.1-3.3V23.2a1.09,1.09,0,0,1,.4-.9,1.22,1.22,0,0,1,.9-.3h6.3a1.4,1.4,0,0,1,.9.3,1.22,1.22,0,0,1,.3.9V45.8a1.14,1.14,0,0,1-.3.8,1.27,1.27,0,0,1-.9.4h-5.9a1.4,1.4,0,0,1-.9-.3,1.27,1.27,0,0,1-.4-.9V44c-1.7,2.3-4.3,3.5-8,3.5A8.76,8.76,0,0,1,139.5,44.6Z"/><path class="cls-1" d="M170.9,37.4V28.5h-3.8a.91.91,0,0,1-.8-.4,1.23,1.23,0,0,1-.4-.8V23.2a1.09,1.09,0,0,1,.4-.9,1.14,1.14,0,0,1,.8-.3h3.8V14.1a1.09,1.09,0,0,1,.4-.9,1.14,1.14,0,0,1,.8-.3H178a1.4,1.4,0,0,1,.9.3,1.22,1.22,0,0,1,.3.9V22h6a1.4,1.4,0,0,1,.9.3,1.27,1.27,0,0,1,.4.9v4.1a1.09,1.09,0,0,1-.4.9,1.22,1.22,0,0,1-.9.3h-6v8.2a4.18,4.18,0,0,0,.6,2.5,2.26,2.26,0,0,0,2,.9h3.8a1.09,1.09,0,0,1,.9.4,1.22,1.22,0,0,1,.3.9v4.4a1.14,1.14,0,0,1-.3.8,1.27,1.27,0,0,1-.9.4H181C174.3,47,170.9,43.8,170.9,37.4Z"/><path class="cls-1" d="M193.5,44.6c-2.2-1.9-3.3-4.5-3.5-8V32.2a10.73,10.73,0,0,1,3.6-7.9c2.2-1.9,5.3-2.9,9.2-2.9s7,1,9.2,2.9a10.9,10.9,0,0,1,3.6,7.9,17.73,17.73,0,0,1,.1,2.2,18.55,18.55,0,0,1-.1,2.2,11.08,11.08,0,0,1-3.5,8c-2.1,1.9-5.3,2.8-9.3,2.8S195.6,46.5,193.5,44.6Zm12.2-4.4a7.15,7.15,0,0,0,1.1-3.8V32.6a6.76,6.76,0,0,0-1.1-3.7,4.1,4.1,0,0,0-5.8,0,7.06,7.06,0,0,0-1.1,3.7v3.8a7.15,7.15,0,0,0,1.1,3.8,4.1,4.1,0,0,0,5.8,0Z"/><path class="cls-1" d="M220.6,46.6a1.23,1.23,0,0,1-.4-.8V23.2a1.09,1.09,0,0,1,.4-.9,1.14,1.14,0,0,1,.8-.3h5.9a1.4,1.4,0,0,1,.9.3,1.22,1.22,0,0,1,.3.9V25a9,9,0,0,1,3.3-2.5,11.59,11.59,0,0,1,4.7-1,10.16,10.16,0,0,1,4.9,1.2,9.41,9.41,0,0,1,3.4,3.7,12,12,0,0,1,1.2,5.9V45.7a1.14,1.14,0,0,1-.3.8,1.27,1.27,0,0,1-.9.4h-6.4a1.4,1.4,0,0,1-.9-.3,1.27,1.27,0,0,1-.4-.9v-13a4.83,4.83,0,0,0-1-3.3,4.35,4.35,0,0,0-6,0,4.86,4.86,0,0,0-1.1,3.3V45.8a1.14,1.14,0,0,1-.3.8,1.27,1.27,0,0,1-.9.4h-6.4A.91.91,0,0,1,220.6,46.6Z"/><path class="cls-1" d="M254.2,46.5a8.91,8.91,0,0,1-3.3-2.7,6.58,6.58,0,0,1-1.2-3.8,6.36,6.36,0,0,1,2.7-5.3,16.14,16.14,0,0,1,7.5-2.8l6-.9v-.6a3.85,3.85,0,0,0-.7-2.6,3.29,3.29,0,0,0-2.4-.8,3.81,3.81,0,0,0-1.6.3c-.4.2-.9.6-1.5,1a5.94,5.94,0,0,1-1.1.8.55.55,0,0,1-.5.3h-5.6a1.14,1.14,0,0,1-.8-.3,1.08,1.08,0,0,1-.3-.7,5.24,5.24,0,0,1,1.3-2.9,9.65,9.65,0,0,1,3.8-2.8,14.75,14.75,0,0,1,6.3-1.2c4,0,6.9.9,8.8,2.6a9.12,9.12,0,0,1,2.9,7.1V45.7a1.14,1.14,0,0,1-.3.8,1.27,1.27,0,0,1-.9.4h-5.9a.91.91,0,0,1-.8-.4,1.23,1.23,0,0,1-.4-.8V44a7.65,7.65,0,0,1-2.9,2.4,10,10,0,0,1-4.5.9A8.63,8.63,0,0,1,254.2,46.5Zm10.4-6.1a5.52,5.52,0,0,0,1.3-4v-.6l-4,.7c-2.7.5-4,1.5-4,2.9a2.27,2.27,0,0,0,.9,1.8,4.18,4.18,0,0,0,2.3.7A5.15,5.15,0,0,0,264.6,40.4Z"/><path class="cls-1" d="M280.1,46.6a1.23,1.23,0,0,1-.4-.8V23.2a1.09,1.09,0,0,1,.4-.9,1.14,1.14,0,0,1,.8-.3h5.6a1.4,1.4,0,0,1,.9.3,1.22,1.22,0,0,1,.3.9v1.6a12.18,12.18,0,0,1,3-2.4,9.19,9.19,0,0,1,4.1-1c3.5,0,5.9,1.4,7.2,4.1a9.26,9.26,0,0,1,3.2-3,8.56,8.56,0,0,1,4.4-1.2A8.24,8.24,0,0,1,316,24c1.6,1.8,2.5,4.4,2.5,7.9V45.5a1.14,1.14,0,0,1-.3.8,1.27,1.27,0,0,1-.9.4h-5.9a1.4,1.4,0,0,1-.9-.3,1.27,1.27,0,0,1-.4-.9v-13a4.53,4.53,0,0,0-.9-3.2,3.17,3.17,0,0,0-2.5-1,3,3,0,0,0-2.4,1,4.89,4.89,0,0,0-.9,3.2V45.8a1.14,1.14,0,0,1-.3.8,1.27,1.27,0,0,1-.9.4h-5.9a1.4,1.4,0,0,1-.9-.3,1.27,1.27,0,0,1-.4-.9V32.5a4.1,4.1,0,0,0-1-3.2,3.17,3.17,0,0,0-2.5-1,3,3,0,0,0-2.4,1,4.89,4.89,0,0,0-1,3.2V45.8a1.14,1.14,0,0,1-.3.8,1.27,1.27,0,0,1-.9.4h-6A.91.91,0,0,1,280.1,46.6Z"/><path class="cls-1" d="M324.1,18.2a1.22,1.22,0,0,1-.3-.9V12.8a1.09,1.09,0,0,1,.4-.9,1.23,1.23,0,0,1,.8-.4h6a1.09,1.09,0,0,1,.9.4,1.27,1.27,0,0,1,.4.9v4.5a1.09,1.09,0,0,1-.4.9,1.27,1.27,0,0,1-.9.4h-6A1.27,1.27,0,0,1,324.1,18.2Zm0,28.4a1.23,1.23,0,0,1-.4-.8V23.2a1.09,1.09,0,0,1,.4-.9,1.14,1.14,0,0,1,.8-.3h6a1.4,1.4,0,0,1,.9.3,1.27,1.27,0,0,1,.4.9V45.8a1.09,1.09,0,0,1-.4.9,1.22,1.22,0,0,1-.9.3h-6A1.2,1.2,0,0,1,324.1,46.6Z"/><g id="Group_1314" data-name="Group 1314"><path id="Path_1" data-name="Path 1" class="cls-1" d="M92.7,0,59.4,57H46.1L79.2,0Z"/><path id="Path_2" data-name="Path 2" class="cls-1" d="M66.3,0l-33,57L0,0H39.9l-6,11.7H20.3L33.2,34.5,52.8,0Z"/></g></g></svg>