<svg id="Layer_1" data-name="Layer 1" xmlns="http://www.w3.org/2000/svg" viewBox="0 0 843.57 156.77"><defs><style>.cls-1{fill:#fff;}</style></defs><polygon class="cls-1" points="108.44 1.33 0.34 1.54 90.48 155.44 180.02 1.4 143.39 1.33 90.18 95.02 55.18 33.01 92.34 33.01 108.44 1.33"/><polygon class="cls-1" points="251.46 1.33 215.11 1.33 125.28 155.33 161.5 155.33 251.46 1.33"/><path class="cls-1" d="M276.58,89.53a2.82,2.82,0,0,1-2.16-.9,3,3,0,0,1-.84-2.1v-78a2.88,2.88,0,0,1,3-3h55.2a2.88,2.88,0,0,1,3,3V20.65a2.88,2.88,0,0,1-3,3H294.7V41.29h34.68a2.82,2.82,0,0,1,2.16.9,3.13,3.13,0,0,1,.84,2.22v12a3,3,0,0,1-.84,2.1,2.82,2.82,0,0,1-2.16.9H294.7V86.53a3,3,0,0,1-.84,2.1,2.82,2.82,0,0,1-2.16.9Z"/><path class="cls-1" d="M368.74,90.73a23.69,23.69,0,0,1-12.18-3.12,21.19,21.19,0,0,1-8.34-9.18,33.17,33.17,0,0,1-3-14.82V30.13a2.88,2.88,0,0,1,3-3h15a3.13,3.13,0,0,1,2.22.84,2.82,2.82,0,0,1,.9,2.16V62.89q0,11.76,10.44,11.76a10.39,10.39,0,0,0,7.86-3.06q2.94-3.06,2.94-8.7V30.13a2.88,2.88,0,0,1,3-3h15a2.88,2.88,0,0,1,3,3v56.4a3,3,0,0,1-.84,2.1,2.82,2.82,0,0,1-2.16.9H391.66a3.08,3.08,0,0,1-3-3V82a19.69,19.69,0,0,1-8.1,6.54A28.86,28.86,0,0,1,368.74,90.73Z"/><path class="cls-1" d="M425.74,89.53a2.82,2.82,0,0,1-2.16-.9,3,3,0,0,1-.84-2.1V30.13a2.88,2.88,0,0,1,3-3h13.8a3.13,3.13,0,0,1,2.22.84,2.82,2.82,0,0,1,.9,2.16v4.56a23.79,23.79,0,0,1,8-6.24,26.27,26.27,0,0,1,11.88-2.52,23.93,23.93,0,0,1,12.3,3.12,21.63,21.63,0,0,1,8.4,9.12q3.06,6,3.06,14.88V86.53a3,3,0,0,1-.84,2.1,2.82,2.82,0,0,1-2.16.9H468.22a3.08,3.08,0,0,1-3-3V53.77q0-5.64-2.7-8.7t-8-3.06a10.39,10.39,0,0,0-7.86,3.06q-2.94,3.06-2.94,8.7V86.53a3.08,3.08,0,0,1-3,3Z"/><path class="cls-1" d="M502.9,89.53a2.82,2.82,0,0,1-2.16-.9,3,3,0,0,1-.84-2.1V30.13a2.88,2.88,0,0,1,3-3h13.8a3.13,3.13,0,0,1,2.22.84,2.82,2.82,0,0,1,.9,2.16v4.56a23.79,23.79,0,0,1,8-6.24,26.27,26.27,0,0,1,11.88-2.52A23.93,23.93,0,0,1,552,29.05a21.63,21.63,0,0,1,8.4,9.12q3.06,6,3.06,14.88V86.53a3,3,0,0,1-.84,2.1,2.82,2.82,0,0,1-2.16.9H545.38a3.08,3.08,0,0,1-3-3V53.77q0-5.64-2.7-8.7t-8-3.06a10.39,10.39,0,0,0-7.86,3.06q-2.94,3.06-2.94,8.7V86.53a3.08,3.08,0,0,1-3,3Z"/><path class="cls-1" d="M605.86,90.73q-14.16,0-22.56-7.68t-8.76-22.8v-4.2a34.81,34.81,0,0,1,4.26-16.26,25.76,25.76,0,0,1,10.8-10.32,34.9,34.9,0,0,1,16.14-3.54q10.56,0,17.46,4.2a26.76,26.76,0,0,1,10.38,11.4A37.32,37.32,0,0,1,637.06,58v2.88a2.88,2.88,0,0,1-3,3h-38.4v.84a18.94,18.94,0,0,0,1.26,6.36,10.26,10.26,0,0,0,3.36,4.56,8.79,8.79,0,0,0,5.46,1.68,9.23,9.23,0,0,0,4-.78,10.58,10.58,0,0,0,2.7-1.8A21.1,21.1,0,0,0,614.14,73a5.93,5.93,0,0,1,1.74-1.62,5.41,5.41,0,0,1,2.1-.3h14.88a2.81,2.81,0,0,1,2,.72,2.17,2.17,0,0,1,.66,1.92,10.55,10.55,0,0,1-2,4.92,24.78,24.78,0,0,1-5.58,5.7,30.46,30.46,0,0,1-9.18,4.62A41.47,41.47,0,0,1,605.86,90.73ZM595.66,52h20.28v-.24A18.08,18.08,0,0,0,614.8,45a9.29,9.29,0,0,0-3.48-4.38A9.82,9.82,0,0,0,605.74,39a9.33,9.33,0,0,0-5.4,1.56A9.8,9.8,0,0,0,596.86,45a17.27,17.27,0,0,0-1.2,6.78Z"/><path class="cls-1" d="M651.34,89.53a2.79,2.79,0,0,1-2.16-.9,3,3,0,0,1-.84-2.1V7.33a2.92,2.92,0,0,1,.84-2.16,2.89,2.89,0,0,1,2.16-.84H665.5a2.88,2.88,0,0,1,3,3v79.2a3,3,0,0,1-.84,2.1,2.84,2.84,0,0,1-2.16.9Z"/><path class="cls-1" d="M687,89.53a2.79,2.79,0,0,1-2.16-.9,3,3,0,0,1-.84-2.1v-78a2.92,2.92,0,0,1,.84-2.16A2.89,2.89,0,0,1,687,5.53H702.1a2.92,2.92,0,0,1,2.16.84,3,3,0,0,1,.84,2.16V35.17L727.3,7.81a6,6,0,0,1,1.62-1.5A5.34,5.34,0,0,1,732,5.53h17.28a2.35,2.35,0,0,1,1.8.78,2.51,2.51,0,0,1,.72,1.74,2.75,2.75,0,0,1-.36,1.44l-28.8,36.24,31,39.84a2,2,0,0,1,.48,1.44,2.51,2.51,0,0,1-.72,1.74,2.35,2.35,0,0,1-1.8.78H733.66a5,5,0,0,1-3.3-1,10.11,10.11,0,0,1-1.5-1.44L705.1,57.49v29a3,3,0,0,1-.84,2.1,2.82,2.82,0,0,1-2.16.9Z"/><path class="cls-1" d="M765.09,18.13a2.88,2.88,0,0,1-3-3V4.33a3,3,0,0,1,.84-2.1,2.82,2.82,0,0,1,2.16-.9h14.4a2.88,2.88,0,0,1,2.1.9,2.88,2.88,0,0,1,.9,2.1v10.8a2.82,2.82,0,0,1-.9,2.16,3,3,0,0,1-2.1.84Zm.12,71.4a2.82,2.82,0,0,1-2.16-.9,3,3,0,0,1-.84-2.1V30.13a2.88,2.88,0,0,1,3-3h14.16a2.86,2.86,0,0,1,3,3v56.4a3,3,0,0,1-.83,2.1,2.86,2.86,0,0,1-2.17.9Z"/><path class="cls-1" d="M828.45,89.53a32.61,32.61,0,0,1-13.25-2.46,17.93,17.93,0,0,1-8.58-7.68c-2-3.48-3-8-3-13.5v-23h-9.37A3.09,3.09,0,0,1,792,42a2.83,2.83,0,0,1-.91-2.16V30.13A2.83,2.83,0,0,1,792,28a3.09,3.09,0,0,1,2.21-.84h9.37V7.33a2.81,2.81,0,0,1,.89-2.16,3,3,0,0,1,2.11-.84h13.92a2.88,2.88,0,0,1,3,3v19.8h15a3.11,3.11,0,0,1,2.21.84,2.8,2.8,0,0,1,.91,2.16v9.72a2.8,2.8,0,0,1-.91,2.16,3.11,3.11,0,0,1-2.21.84h-15V64.21a11.77,11.77,0,0,0,1.55,6.48q1.56,2.4,5.28,2.4h9.25a2.88,2.88,0,0,1,3,3V86.53a3,3,0,0,1-.84,2.1,2.85,2.85,0,0,1-2.16.9Z"/><path class="cls-1" d="M275.41,155.44a1.26,1.26,0,0,1-.89-.4,1.23,1.23,0,0,1-.39-.88,2.26,2.26,0,0,1,.06-.55l14.32-39.12a2.41,2.41,0,0,1,.76-1.19,2.34,2.34,0,0,1,1.61-.52h9a2.39,2.39,0,0,1,1.62.52,2.48,2.48,0,0,1,.76,1.19l14.26,39.12a1.22,1.22,0,0,1-.28,1.43,1.3,1.3,0,0,1-.94.4h-7.5a1.89,1.89,0,0,1-1.37-.46,2.4,2.4,0,0,1-.58-.82l-2.37-6.22H287.23l-2.32,6.22a2.38,2.38,0,0,1-.55.82,2,2,0,0,1-1.46.46Zm14.32-16.27h11.33l-5.67-16.09Z"/><path class="cls-1" d="M332.07,156a12,12,0,0,1-6.18-1.58,10.81,10.81,0,0,1-4.24-4.66,16.93,16.93,0,0,1-1.52-7.53v-17a1.47,1.47,0,0,1,1.52-1.52h7.62a1.58,1.58,0,0,1,1.13.43,1.44,1.44,0,0,1,.46,1.09v16.64c0,4,1.76,6,5.3,6a5.31,5.31,0,0,0,4-1.55,6.15,6.15,0,0,0,1.49-4.42V125.27a1.47,1.47,0,0,1,1.52-1.52h7.62a1.46,1.46,0,0,1,1.52,1.52v28.64a1.54,1.54,0,0,1-.42,1.07,1.46,1.46,0,0,1-1.1.46h-7.07a1.47,1.47,0,0,1-1.06-.46,1.45,1.45,0,0,1-.46-1.07V151.6a10.06,10.06,0,0,1-4.11,3.32A14.72,14.72,0,0,1,332.07,156Z"/><path class="cls-1" d="M375.7,155.44a16.63,16.63,0,0,1-6.73-1.25,9.25,9.25,0,0,1-4.36-3.9,13.75,13.75,0,0,1-1.52-6.86v-11.7h-4.75a1.6,1.6,0,0,1-1.13-.42,1.43,1.43,0,0,1-.46-1.1v-4.94a1.41,1.41,0,0,1,.46-1.09,1.56,1.56,0,0,1,1.13-.43h4.75v-10a1.41,1.41,0,0,1,.46-1.1,1.52,1.52,0,0,1,1.06-.43h7.07a1.52,1.52,0,0,1,1.1.43,1.49,1.49,0,0,1,.42,1.1v10h7.62a1.58,1.58,0,0,1,1.13.43,1.43,1.43,0,0,1,.45,1.09v4.94a1.45,1.45,0,0,1-.45,1.1,1.61,1.61,0,0,1-1.13.42H373.2v10.85a6,6,0,0,0,.8,3.29,3,3,0,0,0,2.68,1.22h4.69a1.44,1.44,0,0,1,1.52,1.52v5.3a1.54,1.54,0,0,1-.42,1.07,1.46,1.46,0,0,1-1.1.46Z"/><path class="cls-1" d="M402.94,156a20.15,20.15,0,0,1-8.62-1.64,12.1,12.1,0,0,1-5.37-4.72,15.8,15.8,0,0,1-2.1-7.35c0-.81-.06-1.73-.06-2.77s0-1.94.06-2.71a15,15,0,0,1,2.2-7.37,12.65,12.65,0,0,1,5.45-4.69,22.56,22.56,0,0,1,16.94,0,12.7,12.7,0,0,1,5.45,4.69,15.09,15.09,0,0,1,2.2,7.37c0,.77.06,1.68.06,2.71s0,2-.06,2.77a15.8,15.8,0,0,1-2.11,7.35,12.07,12.07,0,0,1-5.36,4.72A20.31,20.31,0,0,1,402.94,156Zm0-7.43a4.7,4.7,0,0,0,4-1.64,9,9,0,0,0,1.43-4.94c0-.61.06-1.42.06-2.44s0-1.83-.06-2.43a9,9,0,0,0-1.43-4.91,5.53,5.53,0,0,0-7.92,0,8.33,8.33,0,0,0-1.43,4.91c0,.6-.06,1.42-.06,2.43s0,1.83.06,2.44A8.32,8.32,0,0,0,399,147,4.73,4.73,0,0,0,402.94,148.61Z"/><path class="cls-1" d="M426.7,155.44a1.43,1.43,0,0,1-1.09-.46,1.5,1.5,0,0,1-.43-1.07V125.27a1.45,1.45,0,0,1,.43-1.09,1.44,1.44,0,0,1,1.09-.43h6.64a1.46,1.46,0,0,1,1.1.43,1.49,1.49,0,0,1,.43,1.09v2.08a10.84,10.84,0,0,1,8.59-4.21q7.07-.18,9.69,5.24a10.7,10.7,0,0,1,4-3.78,11.95,11.95,0,0,1,11.39,0,10.25,10.25,0,0,1,4.05,4.39,16.62,16.62,0,0,1,1.53,7.65v17.3a1.5,1.5,0,0,1-.43,1.07,1.45,1.45,0,0,1-1.1.46h-7.06a1.55,1.55,0,0,1-1.13-.46,1.45,1.45,0,0,1-.46-1.07V137a7.77,7.77,0,0,0-.61-3.38,3.86,3.86,0,0,0-1.64-1.8,5.09,5.09,0,0,0-2.38-.54,4.73,4.73,0,0,0-2.16.54,4,4,0,0,0-1.71,1.8,7.59,7.59,0,0,0-.64,3.38v16.88a1.54,1.54,0,0,1-.42,1.07,1.46,1.46,0,0,1-1.1.46H446.2a1.46,1.46,0,0,1-1.1-.46,1.54,1.54,0,0,1-.42-1.07V137a7.29,7.29,0,0,0-.67-3.38,4.27,4.27,0,0,0-1.71-1.8,4.79,4.79,0,0,0-2.25-.54,4.86,4.86,0,0,0-2.23.54,4,4,0,0,0-1.7,1.8,7.29,7.29,0,0,0-.64,3.32v16.94a1.57,1.57,0,0,1-1.53,1.53Z"/><path class="cls-1" d="M490.5,156a13.36,13.36,0,0,1-5.88-1.24,10.63,10.63,0,0,1-4.12-3.39A8.09,8.09,0,0,1,479,146.6a8,8,0,0,1,3.54-6.85,21.65,21.65,0,0,1,9.38-3.45l7.62-1.16v-.85a5.3,5.3,0,0,0-.92-3.35c-.61-.77-1.73-1.16-3.35-1.16a5.19,5.19,0,0,0-2.77.67,4.78,4.78,0,0,0-1.68,1.83,1.73,1.73,0,0,1-1.52.79h-6.83a1.34,1.34,0,0,1-1-.39,1.18,1.18,0,0,1-.31-1,5.26,5.26,0,0,1,.83-2.53,10.78,10.78,0,0,1,2.53-2.83,13.89,13.89,0,0,1,4.38-2.32,20.63,20.63,0,0,1,6.52-.91,22.09,22.09,0,0,1,6.71.91,12.29,12.29,0,0,1,4.57,2.56,10.08,10.08,0,0,1,2.59,3.87,14.29,14.29,0,0,1,.82,4.91v18.52a1.45,1.45,0,0,1-.46,1.07,1.48,1.48,0,0,1-1.07.46h-7.06a1.45,1.45,0,0,1-1.1-.46,1.5,1.5,0,0,1-.43-1.07v-2.13a9,9,0,0,1-2.13,2.13,11.11,11.11,0,0,1-3.14,1.56A13.83,13.83,0,0,1,490.5,156Zm2.86-6.94a6.66,6.66,0,0,0,3.2-.76,5.38,5.38,0,0,0,2.26-2.38,9,9,0,0,0,.82-4.05v-.85l-5.18.91a9.55,9.55,0,0,0-4.17,1.49,2.91,2.91,0,0,0-1.32,2.35,2.72,2.72,0,0,0,.61,1.77,4,4,0,0,0,1.62,1.12A5.72,5.72,0,0,0,493.36,149.1Z"/><path class="cls-1" d="M532.91,155.44a16.68,16.68,0,0,1-6.74-1.25,9.23,9.23,0,0,1-4.35-3.9,13.64,13.64,0,0,1-1.53-6.86v-11.7h-4.75a1.61,1.61,0,0,1-1.13-.42,1.45,1.45,0,0,1-.45-1.1v-4.94a1.43,1.43,0,0,1,.45-1.09,1.58,1.58,0,0,1,1.13-.43h4.75v-10a1.45,1.45,0,0,1,.46-1.1,1.55,1.55,0,0,1,1.07-.43h7.07a1.49,1.49,0,0,1,1.09.43,1.46,1.46,0,0,1,.43,1.1v10H538a1.55,1.55,0,0,1,1.12.43,1.41,1.41,0,0,1,.46,1.09v4.94a1.43,1.43,0,0,1-.46,1.1,1.59,1.59,0,0,1-1.12.42h-7.62v10.85a6,6,0,0,0,.79,3.29,3,3,0,0,0,2.68,1.22h4.69a1.49,1.49,0,0,1,1.1.42,1.52,1.52,0,0,1,.43,1.1v5.3a1.55,1.55,0,0,1-.43,1.07,1.45,1.45,0,0,1-1.1.46Z"/><path class="cls-1" d="M546.62,119.18a1.46,1.46,0,0,1-1.1-.43,1.49,1.49,0,0,1-.43-1.09v-5.49a1.52,1.52,0,0,1,.43-1.06,1.41,1.41,0,0,1,1.1-.46h7.31a1.57,1.57,0,0,1,1.52,1.52v5.49a1.41,1.41,0,0,1-.46,1.09,1.48,1.48,0,0,1-1.06.43Zm.06,36.26a1.46,1.46,0,0,1-1.1-.46,1.55,1.55,0,0,1-.43-1.07V125.27a1.49,1.49,0,0,1,.43-1.09,1.48,1.48,0,0,1,1.1-.43h7.19a1.47,1.47,0,0,1,1.52,1.52v28.64A1.5,1.5,0,0,1,555,155a1.44,1.44,0,0,1-1.09.46Z"/><path class="cls-1" d="M577.88,156a20.2,20.2,0,0,1-8.63-1.64,12.13,12.13,0,0,1-5.36-4.72,15.68,15.68,0,0,1-2.1-7.35c0-.81-.06-1.73-.06-2.77s0-1.94.06-2.71a15,15,0,0,1,2.19-7.37,12.67,12.67,0,0,1,5.46-4.69,19.64,19.64,0,0,1,8.44-1.65,19.86,19.86,0,0,1,8.5,1.65,12.7,12.7,0,0,1,5.45,4.69,15,15,0,0,1,2.19,7.37c0,.77.06,1.68.06,2.71s0,2-.06,2.77a15.68,15.68,0,0,1-2.1,7.35,12.13,12.13,0,0,1-5.36,4.72A20.34,20.34,0,0,1,577.88,156Zm0-7.43a4.72,4.72,0,0,0,4-1.64A9,9,0,0,0,583.3,142c0-.61.06-1.42.06-2.44s0-1.83-.06-2.43a9,9,0,0,0-1.43-4.91,5.53,5.53,0,0,0-7.92,0,8.33,8.33,0,0,0-1.44,4.91c0,.6-.06,1.42-.06,2.43s0,1.83.06,2.44A8.31,8.31,0,0,0,574,147,4.73,4.73,0,0,0,577.88,148.61Z"/><path class="cls-1" d="M601.64,155.44a1.46,1.46,0,0,1-1.1-.46,1.54,1.54,0,0,1-.42-1.07V125.27a1.46,1.46,0,0,1,1.52-1.52h7a1.55,1.55,0,0,1,1.12.43,1.41,1.41,0,0,1,.46,1.09v2.32a12,12,0,0,1,4.08-3.17,13.41,13.41,0,0,1,6-1.28,12.12,12.12,0,0,1,6.24,1.59,11,11,0,0,1,4.27,4.63,16.59,16.59,0,0,1,1.55,7.55v17A1.5,1.5,0,0,1,632,155a1.44,1.44,0,0,1-1.09.46h-7.68a1.55,1.55,0,0,1-1.52-1.53V137.28a6.45,6.45,0,0,0-1.38-4.42,5.09,5.09,0,0,0-4-1.55,5.27,5.27,0,0,0-4,1.55,6.15,6.15,0,0,0-1.49,4.42v16.63a1.45,1.45,0,0,1-.46,1.07,1.47,1.47,0,0,1-1.06.46Z"/><path class="cls-1" d="M652.33,156a22.33,22.33,0,0,1-6.73-.88,15.66,15.66,0,0,1-4.51-2.16,9.9,9.9,0,0,1-2.59-2.65,5.34,5.34,0,0,1-.91-2.41,1.23,1.23,0,0,1,.43-1.1,1.55,1.55,0,0,1,1-.42h7a.88.88,0,0,1,.33.06,1.07,1.07,0,0,1,.34.24,10.48,10.48,0,0,1,1.58,1.07,9.62,9.62,0,0,0,1.83,1.13,5.9,5.9,0,0,0,2.5.48,5.39,5.39,0,0,0,2.86-.7,2.19,2.19,0,0,0,1.16-2,2.35,2.35,0,0,0-.55-1.61,5.37,5.37,0,0,0-2.22-1.25,33.35,33.35,0,0,0-5-1.22,25.09,25.09,0,0,1-5.54-1.92,9.17,9.17,0,0,1-3.66-3.11,8.23,8.23,0,0,1-1.28-4.66,8.09,8.09,0,0,1,1.58-4.69,11.51,11.51,0,0,1,4.64-3.69,17.75,17.75,0,0,1,7.55-1.43,20.26,20.26,0,0,1,6.09.82,15.07,15.07,0,0,1,4.39,2.11,10.81,10.81,0,0,1,2.68,2.62,4.92,4.92,0,0,1,1,2.43,1.42,1.42,0,0,1-1.34,1.53h-6.34a1.23,1.23,0,0,1-.49-.1,2.06,2.06,0,0,1-.42-.21,7.76,7.76,0,0,1-1.47-1,8.59,8.59,0,0,0-1.7-1.1,5.52,5.52,0,0,0-2.44-.49,4,4,0,0,0-2.56.73,2.31,2.31,0,0,0-.91,1.89,2.34,2.34,0,0,0,.52,1.47,4.53,4.53,0,0,0,2.13,1.21,40.13,40.13,0,0,0,5,1.22,19,19,0,0,1,6.71,2.17,9.29,9.29,0,0,1,3.56,3.47,8.69,8.69,0,0,1,1.07,4.17,8.15,8.15,0,0,1-1.77,5.18,11.32,11.32,0,0,1-5.15,3.51A24.24,24.24,0,0,1,652.33,156Z"/></svg>