<svg xmlns="http://www.w3.org/2000/svg" xmlns:xlink="http://www.w3.org/1999/xlink" version="1.0" id="Layer_1" width="332" height="57" xml:space="preserve">
<style type="text/css">
  .st1{fill:#000248;}
  .st2{fill:#1DAAFC;}
  .st3{fill:#070045;}
</style>
<g xmlns="http://www.w3.org/2000/svg" id="WooFunnels-Logo">
  <g class="st0">
    <path class="st1" d="M100.8,46.7c-0.2-0.2-0.3-0.4-0.3-0.7c0-0.2,0-0.3,0-0.4l11.2-30.8c0.3-0.9,1-1.4,1.9-1.4h7.5    c1,0,1.6,0.5,1.9,1.4l11.2,30.8c0,0.1,0,0.2,0,0.4c0,0.3-0.1,0.5-0.3,0.7c-0.2,0.2-0.4,0.3-0.7,0.3H127c-0.8,0-1.3-0.4-1.6-1.1    l-1.7-4.7h-12.6l-1.7,4.7c-0.3,0.7-0.9,1.1-1.6,1.1h-6.2C101.2,47,101,46.9,100.8,46.7z M113.1,34.1h8.5l-4.3-12.2L113.1,34.1z"/>
    <path class="st1" d="M139.5,44.6c-1.7-1.9-2.6-4.6-2.6-8V23.2c0-0.4,0.1-0.6,0.4-0.9c0.2-0.2,0.5-0.3,0.8-0.3h6.4    c0.4,0,0.6,0.1,0.9,0.3c0.2,0.2,0.4,0.5,0.4,0.9v13.1c0,3,1.3,4.5,4,4.5c1.3,0,2.3-0.4,3-1.2c0.7-0.8,1.1-1.9,1.1-3.3V23.2    c0-0.4,0.1-0.6,0.4-0.9c0.2-0.2,0.5-0.3,0.9-0.3h6.3c0.4,0,0.6,0.1,0.9,0.3c0.2,0.2,0.3,0.5,0.3,0.9v22.6c0,0.3-0.1,0.6-0.3,0.8    c-0.2,0.2-0.5,0.4-0.9,0.4h-5.9c-0.4,0-0.6-0.1-0.9-0.3c-0.2-0.2-0.4-0.5-0.4-0.9V44c-1.7,2.3-4.3,3.5-8,3.5    C143.5,47.5,141.2,46.5,139.5,44.6z"/>
    <path class="st1" d="M170.9,37.4v-8.9h-3.8c-0.3,0-0.6-0.1-0.8-0.4c-0.2-0.2-0.4-0.5-0.4-0.8v-4.1c0-0.4,0.1-0.6,0.4-0.9    c0.2-0.2,0.5-0.3,0.8-0.3h3.8v-7.9c0-0.4,0.1-0.6,0.4-0.9c0.2-0.2,0.5-0.3,0.8-0.3h5.9c0.4,0,0.6,0.1,0.9,0.3    c0.2,0.2,0.3,0.5,0.3,0.9V22h6c0.4,0,0.6,0.1,0.9,0.3c0.2,0.2,0.4,0.5,0.4,0.9v4.1c0,0.4-0.1,0.6-0.4,0.9    c-0.2,0.2-0.5,0.3-0.9,0.3h-6v8.2c0,1.1,0.2,2,0.6,2.5c0.4,0.6,1.1,0.9,2,0.9h3.8c0.4,0,0.6,0.1,0.9,0.4c0.2,0.2,0.3,0.5,0.3,0.9    v4.4c0,0.3-0.1,0.6-0.3,0.8c-0.2,0.2-0.5,0.4-0.9,0.4h-4.6C174.3,47,170.9,43.8,170.9,37.4z"/>
    <path class="st1" d="M193.5,44.6c-2.2-1.9-3.3-4.5-3.5-8c0-0.4,0-1.1,0-2.2c0-1,0-1.7,0-2.2c0.2-3.4,1.4-6,3.6-7.9    c2.2-1.9,5.3-2.9,9.2-2.9c3.9,0,7,1,9.2,2.9c2.2,1.9,3.4,4.6,3.6,7.9c0.1,0.8,0.1,1.6,0.1,2.2c0,0.6,0,1.3-0.1,2.2    c-0.2,3.5-1.4,6.1-3.5,8s-5.3,2.8-9.3,2.8C198.7,47.5,195.6,46.5,193.5,44.6z M205.7,40.2c0.6-0.8,1-2.1,1.1-3.8c0-0.3,0-1,0-1.9    c0-1,0-1.6,0-1.9c-0.1-1.7-0.5-2.9-1.1-3.7c-0.6-0.8-1.6-1.2-2.9-1.2c-1.3,0-2.3,0.4-2.9,1.2c-0.6,0.8-1,2.1-1.1,3.7l0,1.9l0,1.9    c0.1,1.7,0.5,3,1.1,3.8c0.6,0.8,1.6,1.2,2.9,1.2C204.1,41.4,205.1,41,205.7,40.2z"/>
  </g>
  <g class="st0">
    <path class="st2" d="M220.6,46.6c-0.2-0.2-0.4-0.5-0.4-0.8V23.2c0-0.4,0.1-0.6,0.4-0.9c0.2-0.2,0.5-0.3,0.8-0.3h5.9    c0.4,0,0.6,0.1,0.9,0.3c0.2,0.2,0.3,0.5,0.3,0.9V25c0.9-1.1,2-1.9,3.3-2.5c1.4-0.6,2.9-1,4.7-1c1.8,0,3.4,0.4,4.9,1.2    c1.4,0.8,2.5,2.1,3.4,3.7s1.2,3.6,1.2,5.9v13.4c0,0.3-0.1,0.6-0.3,0.8c-0.2,0.2-0.5,0.4-0.9,0.4h-6.4c-0.4,0-0.6-0.1-0.9-0.3    c-0.2-0.2-0.4-0.5-0.4-0.9V32.7c0-1.4-0.3-2.5-1-3.3c-0.7-0.8-1.7-1.2-3-1.2c-1.3,0-2.3,0.4-3,1.2s-1.1,1.9-1.1,3.3v13.1    c0,0.3-0.1,0.6-0.3,0.8c-0.2,0.2-0.5,0.4-0.9,0.4h-6.4C221.1,47,220.8,46.9,220.6,46.6z"/>
    <path class="st2" d="M254.2,46.5c-1.4-0.7-2.5-1.6-3.3-2.7c-0.8-1.2-1.2-2.4-1.2-3.8c0-2.2,0.9-3.9,2.7-5.3    c1.8-1.4,4.3-2.3,7.5-2.8l6-0.9v-0.6c0-1.2-0.2-2-0.7-2.6c-0.5-0.5-1.3-0.8-2.4-0.8c-0.6,0-1.2,0.1-1.6,0.3s-0.9,0.6-1.5,1    c-0.4,0.4-0.8,0.6-1.1,0.8c-0.1,0.2-0.3,0.3-0.5,0.3h-5.6c-0.3,0-0.6-0.1-0.8-0.3s-0.3-0.5-0.3-0.7c0-0.9,0.5-1.8,1.3-2.9    c0.8-1.1,2.1-2,3.8-2.8c1.7-0.8,3.8-1.2,6.3-1.2c4,0,6.9,0.9,8.8,2.6c1.9,1.7,2.9,4.1,2.9,7.1v14.5c0,0.3-0.1,0.6-0.3,0.8    c-0.2,0.2-0.5,0.4-0.9,0.4h-5.9c-0.3,0-0.6-0.1-0.8-0.4c-0.2-0.2-0.4-0.5-0.4-0.8v-1.7c-0.7,1-1.7,1.8-2.9,2.4s-2.7,0.9-4.5,0.9    C257.1,47.5,255.5,47.1,254.2,46.5z M264.6,40.4c0.9-0.9,1.3-2.3,1.3-4v-0.6l-4,0.7c-2.7,0.5-4,1.5-4,2.9c0,0.7,0.3,1.3,0.9,1.8    c0.6,0.4,1.4,0.7,2.3,0.7C262.6,41.8,263.7,41.3,264.6,40.4z"/>
    <path class="st2" d="M280.1,46.6c-0.2-0.2-0.4-0.5-0.4-0.8V23.2c0-0.4,0.1-0.6,0.4-0.9c0.2-0.2,0.5-0.3,0.8-0.3h5.6    c0.4,0,0.6,0.1,0.9,0.3c0.2,0.2,0.3,0.5,0.3,0.9v1.6c0.8-0.9,1.8-1.7,3-2.4c1.2-0.6,2.6-1,4.1-1c3.5,0,5.9,1.4,7.2,4.1    c0.8-1.2,1.8-2.2,3.2-3c1.4-0.8,2.8-1.2,4.4-1.2c2.6,0,4.8,0.9,6.4,2.7c1.6,1.8,2.5,4.4,2.5,7.9v13.6c0,0.3-0.1,0.6-0.3,0.8    c-0.2,0.2-0.5,0.4-0.9,0.4h-5.9c-0.4,0-0.6-0.1-0.9-0.3c-0.2-0.2-0.4-0.5-0.4-0.9V32.5c0-1.5-0.3-2.6-0.9-3.2    c-0.6-0.7-1.5-1-2.5-1c-1,0-1.8,0.3-2.4,1c-0.6,0.7-0.9,1.8-0.9,3.2v13.3c0,0.3-0.1,0.6-0.3,0.8c-0.2,0.2-0.5,0.4-0.9,0.4h-5.9    c-0.4,0-0.6-0.1-0.9-0.3c-0.2-0.2-0.4-0.5-0.4-0.9V32.5c0-1.5-0.3-2.6-1-3.2c-0.6-0.7-1.5-1-2.5-1c-1,0-1.8,0.3-2.4,1    c-0.6,0.7-1,1.8-1,3.2v13.3c0,0.3-0.1,0.6-0.3,0.8c-0.2,0.2-0.5,0.4-0.9,0.4h-6C280.6,47,280.3,46.9,280.1,46.6z"/>
    <path class="st2" d="M324.1,18.2c-0.2-0.2-0.3-0.5-0.3-0.9v-4.5c0-0.4,0.1-0.6,0.4-0.9c0.2-0.2,0.5-0.4,0.8-0.4h6    c0.4,0,0.6,0.1,0.9,0.4c0.2,0.2,0.4,0.5,0.4,0.9v4.5c0,0.4-0.1,0.6-0.4,0.9c-0.2,0.2-0.5,0.4-0.9,0.4h-6    C324.6,18.6,324.3,18.4,324.1,18.2z M324.1,46.6c-0.2-0.2-0.4-0.5-0.4-0.8V23.2c0-0.4,0.1-0.6,0.4-0.9c0.2-0.2,0.5-0.3,0.8-0.3h6    c0.4,0,0.6,0.1,0.9,0.3c0.2,0.2,0.4,0.5,0.4,0.9v22.6c0,0.4-0.1,0.6-0.4,0.9c-0.2,0.2-0.5,0.3-0.9,0.3h-6    C324.7,47,324.4,46.9,324.1,46.6z"/>
  </g>
  <g id="Group_1314">
    <path id="Path_1" class="st2" d="M92.7,0L59.4,57H46.1L79.2,0L92.7,0z"/>
    <path id="Path_2" class="st3" d="M66.3,0l-33,57L0,0h39.9l-6,11.7H20.3l12.9,22.8L52.8,0H66.3z"/>
  </g>
</g>

</svg>